<svg width="70" height="72" viewBox="0 0 70 72" fill="none" xmlns="http://www.w3.org/2000/svg">
<g id="Group 1261152766">
<path id="Vector" d="M46.3688 24.5547H23.4761V47.4475H46.3688V24.5547ZM24.8227 46.1008V37.6889L27.7135 34.1876L36.7539 46.1008H24.8227ZM45.0222 46.1008H38.4417L35.2008 41.8275L39.2856 36.9976L45.0222 42.842V46.1008ZM45.0222 40.9208L39.2137 35.0046L34.3748 40.7322L27.7673 32.024L24.8317 35.5791V25.9013H45.0312V40.9208H45.0222Z" fill="#75DAB4"/>
<path id="Vector_2" d="M39.2502 33.597C40.911 33.597 42.2576 32.2504 42.2576 30.5895C42.2576 28.9287 40.911 27.582 39.2502 27.582C37.5893 27.582 36.2427 28.9287 36.2427 30.5895C36.2427 32.2504 37.5893 33.597 39.2502 33.597ZM39.2502 28.9197C40.1659 28.9197 40.911 29.6648 40.911 30.5805C40.911 31.4962 40.1659 32.2414 39.2502 32.2414C38.3344 32.2414 37.5893 31.4962 37.5893 30.5805C37.5893 29.6648 38.3344 28.9197 39.2502 28.9197Z" fill="#75DAB4"/>
<path id="Vector_3" d="M13.7087 67.3227V58.2913H5.38653V47.4464H9.11222V50.9027L34.9227 65.8055L60.7332 50.9027V47.4464H64.4589V58.3002H60.805L56.1367 62.9686V72H65.1681L69.8454 67.3227V58.2913H65.8055V46.0998H60.7332V25.9002H65.8055V13.1521H65.7247L69.8454 9.03142V0H60.805L56.1367 4.67731V13.7087H64.4589V24.5536H60.7332V21.0973L34.9227 6.19451L9.11222 21.0973V24.5536H5.38653V13.7087H9.03142L13.7087 9.03142V0H4.66833L0 4.67731V13.7087H4.0399V25.9002H9.11222V46.0998H4.0399V58.8479H4.1207L0 62.9686V72H9.03142L13.7087 67.3227ZM64.2165 70.6534H57.4833V63.9202H64.2165V70.6534ZM68.4988 66.7392L65.5631 69.6928V63.5252L68.4988 60.5895V66.7392ZM67.5471 59.6379L64.6205 62.5646H58.4439L61.3706 59.6379H67.5561H67.5471ZM68.4988 8.4389L65.5631 11.3925V5.22494L68.4988 2.28928V8.4389ZM64.2165 12.3531H57.4833V5.61995H64.2165V12.3531ZM58.4349 4.27332L61.3616 1.34663H67.5471L64.6115 4.27332H58.4349ZM34.2494 63.8574L11.1322 50.5077L12.9277 49.4663L34.2494 61.7746V63.8484V63.8574ZM59.3865 50.1217L35.596 63.8574V61.7835L57.591 49.0803V23.6828L59.3865 22.6414V50.1127V50.1217ZM35.596 8.14264L58.7132 21.4923L56.9177 22.5337L35.596 10.2254V8.15162V8.14264ZM56.2444 23.6918V48.3082L34.9227 60.6165L13.601 48.3082V23.6918L34.9227 11.3835L56.2444 23.6918ZM10.4589 21.8783L34.2494 8.14264V10.2165L12.2544 22.9197V48.3172L10.4589 49.3586V21.8873V21.8783ZM12.3621 8.44788L9.42643 11.4015V5.23392L12.3621 2.29825V8.44788ZM5.22494 1.35561H11.4105L8.47481 4.28229H2.29825L5.22494 1.35561ZM1.34663 12.3621V5.62893H8.0798V12.3621H1.34663ZM12.3621 66.7481L9.42643 69.7017V63.5342L12.3621 60.5985V66.7481ZM8.0798 70.6623H1.34663V63.9292H8.0798V70.6623ZM2.29825 62.5825L5.22494 59.6559H11.4105L8.48379 62.5825H2.30723H2.29825Z" fill="#75DAB4"/>
</g>
</svg>
