<svg width="72" height="72" viewBox="0 0 72 72" fill="none" xmlns="http://www.w3.org/2000/svg">
<g id="Group 1261152772">
<g id="Group">
<path id="Vector" d="M70.8387 30.1953H63.871C63.2288 30.1953 62.7097 30.7156 62.7097 31.3566V32.5179H34.8387C34.5298 32.5179 34.2348 32.6398 34.0177 32.8582L32.5161 34.3597L31.0146 32.8582C30.7974 32.6398 30.5025 32.5179 30.1935 32.5179H9.29032V31.3566C9.29032 30.7156 8.77123 30.1953 8.12903 30.1953H1.16129C0.519097 30.1953 0 30.7156 0 31.3566V59.2276C0 59.8686 0.519097 60.3889 1.16129 60.3889H8.12903C8.77123 60.3889 9.29032 59.8686 9.29032 59.2276V58.0663H18.6004C18.5969 58.1336 18.5806 58.1975 18.5806 58.2649C18.5806 60.7175 20.5757 62.7114 23.0261 62.7114C23.1015 62.7114 23.1724 62.694 23.2467 62.6894C23.2432 62.7637 23.2258 62.8357 23.2258 62.91C23.2258 65.3627 25.2209 67.3566 27.6712 67.3566C27.7467 67.3566 27.8175 67.3392 27.8919 67.3345C27.8884 67.4089 27.871 67.4809 27.871 67.5552C27.871 70.0078 29.8661 72.0018 32.3164 72.0018C33.5044 72.0018 34.6204 71.5396 35.46 70.6988L36 70.16L36.54 70.6988C37.3796 71.5396 38.4944 72.0018 39.6836 72.0018C42.1339 72.0018 44.129 70.0078 44.129 67.5552C44.129 67.4797 44.1116 67.4089 44.107 67.3345C44.1824 67.3392 44.2533 67.3566 44.3288 67.3566C46.7791 67.3566 48.7742 65.3627 48.7742 62.91C48.7742 62.8345 48.7568 62.7637 48.7521 62.6894C48.8276 62.694 48.8985 62.7114 48.9739 62.7114C51.4243 62.7114 53.4194 60.7175 53.4194 58.2649C53.4194 58.1975 53.4031 58.1325 53.3996 58.0663H62.7097V59.2276C62.7097 59.8686 63.2288 60.3889 63.871 60.3889H70.8387C71.4809 60.3889 72 59.8686 72 59.2276V31.3566C72 30.7156 71.4809 30.1953 70.8387 30.1953ZM6.96774 58.0663H2.32258V32.5179H6.96774V34.8405V58.0663ZM9.29032 34.8405H29.7128L34.2174 39.344C34.6181 39.7458 34.8387 40.2788 34.8387 40.8455C34.8387 42.0172 33.8865 42.9695 32.7159 42.9695C32.1573 42.9695 31.6103 42.7431 31.2143 42.3471L26.3694 37.5033L24.7274 39.1454L25.6483 40.0663L15.2373 50.4772C14.3977 51.3169 13.9355 52.4329 13.9355 53.6197C13.9355 54.3931 14.1515 55.1096 14.4999 55.7437H9.29032V34.8405ZM33.8179 69.0579C33.4219 69.4527 32.8761 69.6792 32.3164 69.6792C31.1458 69.6792 30.1935 68.7269 30.1935 67.5552C30.1935 66.9885 30.4142 66.4543 30.8148 66.0536L31.3548 65.5148L34.3579 68.5179L33.8179 69.0579ZM41.8064 67.5552C41.8064 68.7269 40.8542 69.6792 39.6836 69.6792C39.125 69.6792 38.5781 69.4527 38.1821 69.0567L31.9761 62.8531C31.5755 62.4513 31.3548 61.9183 31.3548 61.3516C31.3548 60.1798 32.3071 59.2276 33.4777 59.2276C34.0363 59.2276 34.5832 59.454 34.9792 59.85L41.1852 66.0536C41.5858 66.4554 41.8064 66.9885 41.8064 67.5552ZM46.4516 62.91C46.4516 64.0818 45.4994 65.034 44.3288 65.034C43.7702 65.034 43.2232 64.8076 42.8272 64.4116L36.6213 58.208C36.2206 57.8062 36 57.2731 36 56.7064C36 55.5347 36.9523 54.5824 38.1228 54.5824C38.6814 54.5824 39.2284 54.8089 39.6244 55.2049L45.8303 61.4085C46.231 61.8103 46.4516 62.3433 46.4516 62.91ZM48.9739 60.3889C48.4154 60.3889 47.8684 60.1624 47.4724 59.7664L41.2664 53.5628C40.8658 53.161 40.6452 52.628 40.6452 52.0612C40.6452 50.8895 41.5974 49.9372 42.768 49.9372C43.3266 49.9372 43.8735 50.1637 44.2695 50.5597L50.4755 56.7633C50.8761 57.1651 51.0968 57.6982 51.0968 58.2649C51.0968 59.4366 50.1445 60.3889 48.9739 60.3889ZM45.2903 47.4161C45.2903 46.2443 46.2426 45.2921 47.4132 45.2921C47.9717 45.2921 48.5187 45.5185 48.9147 45.9145L55.1206 52.1181C55.5213 52.52 55.7419 53.053 55.7419 53.6197C55.7419 54.7914 54.7897 55.7437 53.6191 55.7437C53.0605 55.7437 52.5135 55.5172 52.1175 55.1212L45.9116 48.9176C45.511 48.5158 45.2903 47.9828 45.2903 47.4161ZM57.5001 55.7437C57.8485 55.1096 58.0645 54.3931 58.0645 53.6197C58.0645 52.4329 57.6023 51.3169 56.7627 50.4761L50.5568 44.2725C49.7172 43.4317 48.6023 42.9695 47.4132 42.9695C44.9628 42.9695 42.9677 44.9634 42.9677 47.4161C42.9677 47.4916 42.9852 47.5624 42.9898 47.6367C42.9143 47.6321 42.8435 47.6147 42.768 47.6147C40.3177 47.6147 38.3226 49.6086 38.3226 52.0612C38.3226 52.1367 38.34 52.2076 38.3446 52.2819C38.2692 52.2772 38.1983 52.2598 38.1228 52.2598C35.6725 52.2598 33.6774 54.2538 33.6774 56.7064C33.6774 56.7819 33.6948 56.8527 33.6995 56.9271C33.624 56.9224 33.5532 56.905 33.4777 56.905C31.0274 56.905 29.0323 58.8989 29.0323 61.3516C29.0323 62.24 29.2924 63.0889 29.7743 63.8112L29.1728 64.4127C28.7768 64.8076 28.231 65.034 27.6712 65.034C26.5006 65.034 25.5484 64.0818 25.5484 62.91C25.5484 62.3433 25.769 61.8091 26.1697 61.4085L28.692 58.8873L27.0499 57.2452L24.5276 59.7676C24.1316 60.1624 23.5858 60.3889 23.0261 60.3889C21.8555 60.3889 20.9032 59.4366 20.9032 58.2649C20.9032 57.6982 21.1239 57.164 21.5245 56.7633L24.0468 54.2422L22.4048 52.6001L19.8825 55.1224C19.4865 55.5172 18.9406 55.7437 18.3809 55.7437C17.2103 55.7437 16.2581 54.7914 16.2581 53.6197C16.2581 53.053 16.4787 52.5188 16.8794 52.1181L27.2903 41.7072L29.5723 43.988C30.4119 44.8299 31.5267 45.2921 32.7159 45.2921C35.1662 45.2921 37.1613 43.2982 37.1613 40.8455C37.1613 39.6587 36.6991 38.5427 35.8595 37.7019L34.1582 36.0018L35.3195 34.8405H62.7097V55.7437H57.5001ZM69.6774 58.0663H65.0323V32.5179H69.6774V58.0663Z" fill="#75DAB4"/>
<path id="Vector_2" d="M36.0001 23.2268C40.4815 23.2268 44.1292 19.5804 44.1292 15.0978C44.1292 10.6152 40.4815 6.96875 36.0001 6.96875C31.5187 6.96875 27.8711 10.6152 27.8711 15.0978C27.8711 19.5804 31.5187 23.2268 36.0001 23.2268ZM36.0001 9.29133C39.2018 9.29133 41.8066 11.8961 41.8066 15.0978C41.8066 18.2995 39.2018 20.9042 36.0001 20.9042C32.7984 20.9042 30.1937 18.2995 30.1937 15.0978C30.1937 11.8961 32.7984 9.29133 36.0001 9.29133Z" fill="#75DAB4"/>
<path id="Vector_3" d="M8.12889 18.5806C9.64089 18.5806 10.9183 17.6063 11.3991 16.2581H20.9031V17.4194C20.9031 18.0604 21.4222 18.5806 22.0644 18.5806H23.7111C23.9677 19.4655 24.3289 20.333 24.7946 21.1761L23.5659 22.4048C23.1119 22.8588 23.1119 23.5928 23.5659 24.0468L27.0498 27.5307C27.5039 27.9848 28.2378 27.9848 28.6919 27.5307L29.9205 26.3021C30.7636 26.7666 31.6311 27.1289 32.516 27.3855V29.0323C32.516 29.6733 33.0351 30.1935 33.6773 30.1935H38.3224C38.9646 30.1935 39.4837 29.6733 39.4837 29.0323V27.3879C40.3861 27.1312 41.2593 26.7735 42.0943 26.3172L43.3079 27.5307C43.7619 27.9848 44.4959 27.9848 44.9499 27.5307L48.0935 24.3871H53.6329C54.1137 25.7354 55.3911 26.7097 56.9031 26.7097C58.8239 26.7097 60.387 25.1466 60.387 23.2258C60.387 21.305 58.8239 19.7419 56.9031 19.7419C55.3911 19.7419 54.1137 20.7163 53.6329 22.0645H48.0935L47.2202 21.1912C47.6766 20.3563 48.0343 19.483 48.291 18.5806H49.9353C50.5775 18.5806 51.0966 18.0604 51.0966 17.4194V16.2581H60.6006C61.0814 17.6063 62.3588 18.5806 63.8708 18.5806C65.7916 18.5806 67.3547 17.0175 67.3547 15.0968C67.3547 13.176 65.7916 11.6129 63.8708 11.6129C62.3588 11.6129 61.0814 12.5872 60.6006 13.9355H51.0966V12.7742C51.0966 12.1332 50.5775 11.6129 49.9353 11.6129H48.2886C48.032 10.728 47.6708 9.86052 47.2051 9.01742L48.4338 7.78877C48.8879 7.33471 48.8879 6.60077 48.4338 6.14671L44.9499 2.66284C44.4959 2.20877 43.7619 2.20877 43.3079 2.66284L42.0792 3.89148C41.2373 3.42697 40.3698 3.06465 39.4837 2.808V1.16129C39.4837 0.520258 38.9646 0 38.3224 0H33.6773C33.0351 0 32.516 0.520258 32.516 1.16129V2.80568C31.6137 3.06232 30.7404 3.42 29.9054 3.87639L28.6919 2.66284C28.2378 2.20877 27.5039 2.20877 27.0498 2.66284L23.9062 5.80645H18.3668C17.8861 4.45819 16.6086 3.48387 15.0966 3.48387C13.1759 3.48387 11.6128 5.04697 11.6128 6.96774C11.6128 8.88852 13.1759 10.4516 15.0966 10.4516C16.6086 10.4516 17.8861 9.47729 18.3668 8.12903H23.9062L24.7795 9.00232C24.3231 9.83729 23.9654 10.7106 23.7088 11.6129H22.0644C21.4222 11.6129 20.9031 12.1332 20.9031 12.7742V13.9355H11.3991C10.9183 12.5872 9.64089 11.6129 8.12889 11.6129C6.20812 11.6129 4.64502 13.176 4.64502 15.0968C4.64502 17.0175 6.20812 18.5806 8.12889 18.5806ZM63.8708 13.9355C64.5119 13.9355 65.0321 14.4569 65.0321 15.0968C65.0321 15.7366 64.5119 16.2581 63.8708 16.2581C63.2298 16.2581 62.7095 15.7366 62.7095 15.0968C62.7095 14.4569 63.2298 13.9355 63.8708 13.9355ZM56.9031 22.0645C57.5441 22.0645 58.0644 22.5859 58.0644 23.2258C58.0644 23.8657 57.5441 24.3871 56.9031 24.3871C56.2621 24.3871 55.7418 23.8657 55.7418 23.2258C55.7418 22.5859 56.2621 22.0645 56.9031 22.0645ZM15.0966 8.12903C14.4556 8.12903 13.9353 7.60761 13.9353 6.96774C13.9353 6.32787 14.4556 5.80645 15.0966 5.80645C15.7377 5.80645 16.2579 6.32787 16.2579 6.96774C16.2579 7.60761 15.7377 8.12903 15.0966 8.12903ZM23.2257 13.9355H24.6204C25.1731 13.9355 25.6493 13.5465 25.7584 13.0053C26.0116 11.7511 26.5028 10.555 27.2147 9.44942C27.5108 8.98955 27.4458 8.38568 27.0591 7.99897L26.029 6.96774L27.8708 5.12594L28.9021 6.15716C29.2899 6.54503 29.8938 6.6089 30.3525 6.31161C31.4569 5.59974 32.653 5.10968 33.9084 4.85535C34.4495 4.74503 34.8386 4.2689 34.8386 3.71729V2.32258H37.1611V3.71729C37.1611 4.27006 37.5502 4.74503 38.0913 4.85535C39.3072 5.10155 40.4987 5.59742 41.6321 6.32903C42.092 6.624 42.6947 6.56129 43.0826 6.17342L44.1289 5.12594L45.9707 6.96774L44.9244 8.01406C44.5377 8.40077 44.4726 9.00465 44.7688 9.46336C45.5004 10.6003 45.9962 11.7917 46.2413 13.0041C46.3504 13.5465 46.8266 13.9355 47.3793 13.9355H48.7741V16.2581H47.3793C46.8266 16.2581 46.3504 16.6471 46.2413 17.1883C45.9881 18.4425 45.4969 19.6386 44.785 20.7441C44.4889 21.204 44.5539 21.8079 44.9406 22.1946L45.9707 23.2258L44.1289 25.0676L43.0977 24.0364C42.711 23.6497 42.1059 23.5858 41.6472 23.8819C40.5428 24.5938 39.3467 25.0839 38.0913 25.3382C37.5502 25.4485 37.1611 25.9246 37.1611 26.4763V27.871H34.8386V26.4763C34.8386 25.9235 34.4495 25.4485 33.9084 25.3382C32.6925 25.092 31.501 24.5961 30.3676 23.8645C29.9077 23.5707 29.305 23.6323 28.9171 24.0201L27.8708 25.0676L26.029 23.2258L27.0753 22.1795C27.4621 21.7928 27.5271 21.1889 27.231 20.7302C26.4993 19.5933 26.0035 18.4018 25.7584 17.1894C25.6493 16.6471 25.1731 16.2581 24.6204 16.2581H23.2257V13.9355ZM8.12889 13.9355C8.76992 13.9355 9.29018 14.4569 9.29018 15.0968C9.29018 15.7366 8.76992 16.2581 8.12889 16.2581C7.48786 16.2581 6.9676 15.7366 6.9676 15.0968C6.9676 14.4569 7.48786 13.9355 8.12889 13.9355Z" fill="#75DAB4"/>
</g>
</g>
</svg>
