<svg width="66" height="72" viewBox="0 0 66 72" fill="none" xmlns="http://www.w3.org/2000/svg">
<g id="Group 1261152769">
<g id="Group">
<path id="Vector" d="M20.6885 15.1095C12.4225 18.2316 7.73368 26.7016 9.0925 35.1522C3.37212 38.4092 3.03519 38.3375 3.00692 38.9813C2.99444 39.2118 3.00328 44.4349 3.00028 51.0206C3.00028 51.3202 3.17302 51.5911 3.44394 51.7187L13.241 56.3445C13.2425 56.3452 13.2443 56.3449 13.2458 56.3456C13.5871 56.5048 13.7961 56.3602 13.9563 56.3158L17.4116 54.3241C21.1635 59.5954 28.5951 60.7035 32.8056 57.6576L32.9525 57.702C37.2522 58.9047 42.1252 57.9787 45.6702 55.2924C45.6965 55.2723 45.7101 55.2434 45.7332 55.2207L49.0331 56.7789C49.0346 56.7796 49.0364 56.7792 49.0379 56.7799C49.3793 56.9392 49.5883 56.7945 49.7484 56.7502L59.5468 51.1038C59.7862 50.9662 59.9339 50.711 59.9339 50.4358C59.9344 45.9202 59.9289 38.9174 59.9319 39.1319C59.9283 38.8703 59.7462 38.5839 59.5397 38.4692L54.2766 35.531C54.2994 35.4772 54.3265 35.4258 54.3369 35.3658C55.0529 31.2417 54.2731 26.7922 52.1975 23.1555C50.091 19.4672 46.7424 16.6104 42.7681 15.1095C42.5846 15.0387 42.3929 15.0515 42.2227 15.117C42.2234 12.0928 42.2187 8.62324 42.2207 8.77397C42.2171 8.51244 42.0351 8.22603 41.8285 8.11137L32.2874 2.78462C32.0537 2.65561 31.7699 2.65417 31.5348 2.78606L21.4661 8.4253C21.317 8.50731 21.1058 8.75397 21.0894 9.05136C21.074 9.29283 21.0838 12.8179 21.0813 15.0818C20.9523 15.0606 20.8193 15.0601 20.6885 15.1095ZM14.3752 54.2939L14.6153 44.4262L22.5993 40.0163V49.5542C22.4504 49.64 14.2263 54.3798 14.3752 54.2939ZM4.54268 40.2603L13.0732 44.4299L12.8285 54.4437L4.54267 50.5304L4.54268 40.2603ZM32.4845 55.9245C31.3721 55.4873 30.5543 54.8967 30.0504 54.1671C28.0782 51.2672 31.8061 49.3941 33.2679 51.67C33.9785 52.7751 33.8336 54.6146 32.4845 55.9245ZM40.3348 40.6947L48.8653 44.8643L48.6206 54.8781L40.3348 50.9647L40.3348 40.6947ZM50.1673 54.7283L50.4074 44.8605L58.3914 40.4507V49.99L50.1673 54.7283ZM42.2234 16.5516C45.8099 17.9062 48.9571 20.5925 50.8586 23.921C52.6994 27.1445 53.415 31.0679 52.8633 34.7419L49.9985 33.1425C49.7648 33.0135 49.481 33.0121 49.2459 33.1439L39.1773 38.7832C39.0281 38.8652 38.817 39.1107 38.8005 39.4092C38.7852 39.6493 38.7962 44.591 38.7924 51.455C38.7924 51.7546 38.9651 52.0255 39.2361 52.1531L44.1364 54.4669C41.2461 56.3983 37.5384 57.1268 34.1215 56.4019C35.5038 54.5942 35.5291 52.3341 34.5651 50.8372C31.9257 46.7204 25.6612 50.4506 28.7775 55.0372C29.3029 55.7984 30.0462 56.4348 31.0109 56.9423C27.1184 58.8568 21.6476 57.481 18.7607 53.5466L23.7547 50.668C23.9941 50.5304 24.1417 50.2753 24.1417 50C24.1415 47.427 24.1421 56.2255 24.1409 38.7018C24.1392 38.4015 23.9057 38.1229 23.7475 38.0349L14.2064 32.7082C13.9727 32.5792 13.6889 32.5777 13.4538 32.7096L10.5421 34.3403C9.56431 26.4763 14.105 19.3363 21.0812 16.617V21.0971C21.0812 21.3967 21.254 21.6676 21.5249 21.7952L31.3219 26.421C31.3237 26.4219 31.3259 26.4214 31.3277 26.4224C31.6869 26.5894 31.8901 26.4329 32.0372 26.3923L41.8357 20.7459C42.075 20.6083 42.2227 20.3531 42.2227 20.0779L42.2234 16.5516C42.2237 16.5516 42.2231 16.5516 42.2234 16.5516ZM32.6955 14.503L40.6803 10.0928V19.6321L32.4561 24.3704L32.6955 14.503ZM31.1536 14.506L30.9094 24.5202L22.6237 20.6069V10.3368L31.1536 14.506Z" fill="#75DAB4"/>
<path id="Vector_2" d="M0.00878906 14.8931V36.2459C0.00878906 36.6717 0.354252 37.0171 0.779991 37.0171C1.20573 37.0171 1.55119 36.6717 1.55119 36.2459V15.3145L15.6734 6.2509C16.3732 6.99326 17.4219 7.37527 18.4961 7.16133C20.1553 6.83128 21.2325 5.21863 20.9023 3.55939C20.5721 1.90016 18.9593 0.82291 17.3003 1.15333C15.6411 1.48338 14.5639 3.09603 14.8941 4.75526C14.9036 4.80275 14.9241 4.84467 14.9357 4.89109L0.363558 14.2437C0.14282 14.3856 0.00878906 14.6307 0.00878906 14.8931Z" fill="#75DAB4"/>
<path id="Vector_3" d="M63.3148 12.7335L44.7637 0.133327C44.4125 -0.106068 43.9323 -0.0143259 43.6929 0.338314C43.4535 0.690954 43.5452 1.16973 43.8979 1.40911L62.1107 13.7799V27.8164C61.0128 28.1045 60.1147 28.9836 59.8782 30.1717C59.548 31.8308 60.6252 33.4434 62.2843 33.7738C63.9434 34.1039 65.5561 33.0266 65.8864 31.3676C66.2046 29.7689 65.2099 28.2251 63.6531 27.8185V13.3713C63.6531 13.1162 63.5263 12.8768 63.3148 12.7335Z" fill="#75DAB4"/>
<path id="Vector_4" d="M2.46567 61.5655C3.7325 61.8176 4.96752 61.2459 5.62995 60.2243L32.152 71.9314C32.3627 72.0261 32.6187 72.0217 32.8379 71.8999L60.0894 56.7525C60.4614 56.5461 60.5955 56.0759 60.3883 55.7046C60.1826 55.3319 59.7146 55.2001 59.3397 55.405L32.4236 70.3661L6.10712 58.75C6.20111 57.2431 5.18316 55.8602 3.66154 55.5573C2.0024 55.2271 0.389757 56.3043 0.0595161 57.9634C-0.27071 59.6226 0.806528 61.2353 2.46567 61.5655Z" fill="#75DAB4"/>
<path id="Vector_5" d="M35.8719 33.4406C35.5708 33.1396 35.082 33.1396 34.781 33.4406C34.48 33.7416 34.48 34.229 34.781 34.5301L36.9749 36.7247L34.781 38.9193C34.2921 39.4082 34.6486 40.2352 35.3264 40.2352C35.8902 40.2352 35.8601 39.9119 38.6105 37.2694C38.9115 36.9684 38.9115 36.481 38.6105 36.18L35.8719 33.4406Z" fill="#75DAB4"/>
<path id="Vector_6" d="M25.9503 33.9992L28.0618 31.7243C28.3513 31.4118 28.3327 30.9244 28.0209 30.6348C27.7084 30.3467 27.2203 30.3639 26.9307 30.675L24.2953 33.5147C24.0041 33.8298 24.0266 34.3167 24.3362 34.6041L27.1759 37.2388C27.4886 37.5288 27.9755 37.5111 28.266 37.1987C28.5556 36.8862 28.5369 36.3988 28.2252 36.1092L25.9503 33.9992Z" fill="#75DAB4"/>
<path id="Vector_7" d="M33.256 29.5639C32.846 29.4507 32.4196 29.6814 32.3013 30.09L29.1448 40.9986C29.0016 41.492 29.3717 41.9849 29.8852 41.9849C30.2199 41.9849 30.5281 41.7656 30.6256 41.4287L33.782 30.52C33.901 30.1101 33.6652 29.6829 33.256 29.5639Z" fill="#75DAB4"/>
</g>
</g>
</svg>
