<svg width="72" height="63" viewBox="0 0 72 63" fill="none" xmlns="http://www.w3.org/2000/svg">
<g id="Group 1261152774">
<path id="Vector" d="M39.495 55.4189C39.5364 55.5177 39.5578 55.6237 39.5581 55.7308C39.5584 55.8379 39.5375 55.944 39.4967 56.043C39.4559 56.142 39.3959 56.2319 39.3203 56.3077C39.2446 56.3835 39.1547 56.4436 39.0558 56.4845C38.0877 56.8926 37.0478 57.1028 35.9973 57.1028C34.9467 57.1028 33.9068 56.8926 32.9388 56.4845C32.7392 56.4026 32.5804 56.2447 32.4973 56.0456C32.4141 55.8465 32.4135 55.6226 32.4955 55.423C32.5774 55.2235 32.7353 55.0646 32.9344 54.9815C33.1335 54.8984 33.3574 54.8977 33.557 54.9797C34.3266 55.3161 35.1574 55.4898 35.9973 55.4898C36.8372 55.4898 37.668 55.3161 38.4376 54.9797C38.6361 54.8987 38.8586 54.8995 39.0567 54.9817C39.2547 55.064 39.4123 55.2211 39.495 55.4189ZM46.8159 12.4699C46.9413 12.5898 47.025 12.7467 47.0549 12.9176C47.0848 13.0885 47.0593 13.2644 46.9821 13.4198C46.9049 13.5752 46.78 13.7018 46.6257 13.7811C46.4714 13.8605 46.2958 13.8884 46.1245 13.8608V21.743C46.1245 21.9587 46.0388 22.1656 45.8862 22.3181C45.7337 22.4707 45.5268 22.5564 45.311 22.5564H26.6022C26.3864 22.5564 26.1795 22.4707 26.027 22.3181C25.8744 22.1656 25.7887 21.9587 25.7887 21.743V13.8608C25.6174 13.8884 25.4418 13.8605 25.2875 13.7811C25.1332 13.7018 25.0084 13.5752 24.9311 13.4198C24.8539 13.2644 24.8284 13.0885 24.8583 12.9176C24.8882 12.7467 24.9719 12.5898 25.0973 12.4699L26.0734 11.5995L34.6307 3.15611C34.9966 2.80032 35.4869 2.60128 35.9973 2.60128C36.5077 2.60128 36.9979 2.80032 37.3638 3.15611L45.8967 11.5426L46.8159 12.4699ZM33.557 14.6011H30.6856V20.9295H33.557V14.6011ZM44.4976 12.478L36.225 4.27864C36.1603 4.22717 36.08 4.19915 35.9973 4.19915C35.9146 4.19915 35.8343 4.22717 35.7695 4.27864L27.4725 12.4129V20.9295H29.0587V13.7876C29.0587 13.5719 29.1444 13.365 29.297 13.2124C29.4495 13.0599 29.6564 12.9742 29.8722 12.9742H34.3704C34.5862 12.9742 34.7931 13.0599 34.9456 13.2124C35.0982 13.365 35.1838 13.5719 35.1838 13.7876V20.9295H44.522L44.4976 12.478ZM58.3015 36.3522V27.0547C58.3009 26.9113 58.3383 26.7704 58.4097 26.6461C58.4811 26.5218 58.5841 26.4186 58.7082 26.347C58.8319 26.2756 58.9722 26.238 59.1149 26.238C59.2577 26.238 59.398 26.2756 59.5217 26.347L67.5827 30.9998C67.7057 31.0708 67.8079 31.1727 67.8793 31.2954C67.9506 31.4181 67.9886 31.5574 67.9895 31.6993C67.99 31.8427 67.9527 31.9836 67.8813 32.1079C67.8099 32.2322 67.7069 32.3354 67.5827 32.407L59.5217 37.0598C59.3977 37.1301 59.2574 37.1666 59.1149 37.1656C58.8992 37.1656 58.6923 37.0799 58.5398 36.9273C58.3872 36.7748 58.3015 36.5679 58.3015 36.3522ZM59.9284 34.9449L65.5492 31.6912L59.9284 28.4375V34.9449ZM51.7941 44.1774V47.4311C51.7921 48.0814 51.5356 48.7052 51.0795 49.1689C50.6235 49.6325 50.004 49.8993 49.3538 49.912H48.7193C48.6148 50.2872 48.453 50.6439 48.2394 50.9695V52.5394C48.2476 54.1403 47.7656 55.7053 46.8583 57.0242C45.9509 58.343 44.6616 59.3526 43.1636 59.9172L38.34 61.7718C36.8347 62.3358 35.1761 62.3358 33.6709 61.7718L28.8391 59.9579C27.3472 59.388 26.0648 58.3762 25.1636 57.0578C24.2623 55.7393 23.7851 54.1771 23.7958 52.5801V51.0102C23.5823 50.6845 23.4204 50.3278 23.3159 49.9527H22.6814C22.0241 49.9506 21.3943 49.6885 20.9295 49.2237C20.4647 48.7589 20.2026 48.1291 20.2005 47.4717V44.218C20.2132 43.5678 20.48 42.9483 20.9436 42.4923C21.4073 42.0362 22.0311 41.7797 22.6814 41.7777H23.3403C23.4701 41.4058 23.6719 41.0631 23.9341 40.7691C24.2317 38.7588 25.0267 36.8547 26.247 35.2296C27.4672 33.6045 29.074 32.31 30.9215 31.4634L30.6368 30.4711C30.6288 30.3981 30.6288 30.3244 30.6368 30.2514C30.6368 28.6246 33.5814 28.2585 36.0542 28.2585C38.527 28.2585 41.4717 28.6083 41.4717 30.2514C41.4797 30.3244 41.4797 30.3981 41.4717 30.4711L41.187 31.4634C43.0345 32.31 44.6413 33.6045 45.8615 35.2296C47.0817 36.8547 47.8767 38.7588 48.1743 40.7691C48.3988 41.0454 48.5723 41.3593 48.6868 41.6964H49.3457C50.003 41.6985 50.6328 41.9606 51.0976 42.4254C51.5624 42.8902 51.8245 43.52 51.8266 44.1774H51.7941ZM23.1532 43.3233H22.6489C22.5387 43.3177 22.4285 43.3347 22.3251 43.3731C22.2217 43.4115 22.1271 43.4705 22.0472 43.5466C21.9673 43.6227 21.9038 43.7143 21.8604 43.8157C21.817 43.9171 21.7947 44.0264 21.7948 44.1367V47.3904C21.789 47.5041 21.807 47.6178 21.8479 47.724C21.8888 47.8303 21.9515 47.9268 22.032 48.0073C22.1125 48.0878 22.209 48.1505 22.3153 48.1914C22.4215 48.2323 22.5352 48.2503 22.6489 48.2445H23.1532V43.3233ZM40.6582 32.9683L39.1208 38.3695C39.2117 38.4861 39.2907 38.6114 39.3567 38.7436L39.8285 39.7198H45.9293H46.2384C45.7513 37.928 44.8067 36.2937 43.4971 34.9775C42.6644 34.1601 41.706 33.4818 40.6582 32.9683ZM32.2718 30.3084L32.6297 31.5611C32.6333 31.6098 32.6333 31.6587 32.6297 31.7075L34.3704 37.7106H37.6241L39.3323 31.6993C39.3277 31.6534 39.3277 31.607 39.3323 31.5611L39.7228 30.3084C38.5433 29.6251 33.4512 29.6251 32.2718 30.3084ZM37.8926 39.4595C37.8775 39.4299 37.8551 39.4047 37.8275 39.3862H37.7787H34.2159H34.1671C34.1395 39.4047 34.1171 39.4299 34.102 39.4595L33.9718 39.7279H38.039L37.8926 39.4595ZM25.7562 39.7442H26.0653H32.166L32.6378 38.768C32.7038 38.6358 32.7829 38.5105 32.8737 38.3939L31.3363 32.9927C29.9787 33.6532 28.7783 34.5968 27.8158 35.7599C26.8533 36.9231 26.151 38.2788 25.7562 39.736V39.7442ZM46.5719 52.3849C46.0939 52.6008 45.5752 52.7118 45.0508 52.7102H39.3242C38.7057 52.7081 38.1132 52.4614 37.6758 52.0241C37.2385 51.5867 36.9918 50.9942 36.9897 50.3757C36.9897 50.1765 36.9111 49.9853 36.771 49.8436C36.6309 49.702 36.4405 49.6213 36.2413 49.6192H35.7533C35.554 49.6213 35.3637 49.702 35.2236 49.8436C35.0835 49.9853 35.0049 50.1765 35.0049 50.3757C35.0028 50.9942 34.7561 51.5867 34.3188 52.0241C33.8814 52.4614 33.2889 52.7081 32.6704 52.7102H26.9113C26.3868 52.7118 25.8681 52.6008 25.3902 52.3849V52.5801C25.3854 53.8501 25.7684 55.0913 26.4879 56.1378C27.2074 57.1844 28.2292 57.9864 29.4166 58.4368L34.2403 60.2914C35.372 60.7223 36.6226 60.7223 37.7543 60.2914L42.5779 58.4368C43.7593 57.9812 44.7741 57.1769 45.4875 56.1308C46.2009 55.0847 46.5791 53.8463 46.5719 52.5801V52.3849ZM47.1819 42.6237C47.1841 42.4513 47.1513 42.2803 47.0856 42.1209C47.0199 41.9616 46.9226 41.8172 46.7996 41.6964C46.5738 41.499 46.286 41.3867 45.9862 41.3792H26.0653C25.7237 41.3813 25.3968 41.5185 25.156 41.7608C24.9152 42.0031 24.7801 42.3309 24.7801 42.6725V48.9766C24.7759 49.4437 24.9276 49.8988 25.2112 50.2699C25.4103 50.524 25.6647 50.7293 25.9551 50.8702C26.2454 51.0112 26.5641 51.0841 26.8869 51.0834H32.646C32.8336 51.0834 33.0136 51.0088 33.1464 50.8761C33.2791 50.7434 33.3536 50.5634 33.3536 50.3757C33.3536 49.745 33.6036 49.14 34.0488 48.6933C34.494 48.2465 35.0982 47.9945 35.7288 47.9923H36.2169C36.8476 47.9945 37.4517 48.2465 37.8969 48.6933C38.3421 49.14 38.5921 49.745 38.5921 50.3757C38.5921 50.5634 38.6667 50.7434 38.7994 50.8761C38.9321 51.0088 39.1121 51.0834 39.2998 51.0834H45.0589C45.3816 51.0841 45.7003 51.0112 45.9907 50.8702C46.281 50.7293 46.5354 50.524 46.7346 50.2699C47.0182 49.8988 47.1699 49.4437 47.1657 48.9766L47.1819 42.6237ZM50.1672 44.1611C50.1672 43.9454 50.0815 43.7384 49.929 43.5859C49.7764 43.4334 49.5695 43.3477 49.3538 43.3477H48.8495V48.3502H49.3538C49.4641 48.3504 49.5733 48.3281 49.6748 48.2847C49.7762 48.2413 49.8678 48.1777 49.9438 48.0978C50.0199 48.0179 50.079 47.9234 50.1174 47.8199C50.1558 47.7165 50.1727 47.6063 50.1672 47.4961V44.1611ZM71.9671 11.6239V35.8641C71.9708 35.8993 71.9708 35.9347 71.9671 35.9698C71.8614 40.2485 65.4597 43.8764 54.2669 45.9425H54.1123C53.8966 45.9425 53.6897 45.8568 53.5372 45.7043C53.3846 45.5517 53.2989 45.3448 53.2989 45.1291V27.2336C47.5812 26.2858 41.7929 25.8286 35.9973 25.8671C30.1921 25.8434 24.3956 26.3169 18.6712 27.2824V45.1779C18.6714 45.2974 18.6453 45.4155 18.5947 45.5237C18.5441 45.632 18.4702 45.7277 18.3784 45.8042C18.2855 45.8809 18.1768 45.936 18.06 45.9655C17.9433 45.9951 17.8214 45.9983 17.7032 45.975C6.543 43.9008 0.10877 40.2648 0.00302455 36.0024C-0.000974643 35.97 -0.000974643 35.9372 0.00302455 35.9048V11.6483C-0.00100818 11.6132 -0.00100818 11.5777 0.00302455 11.5426C0.206382 4.31931 18.3865 0 35.9973 0C53.608 0 71.7882 4.31931 71.9915 11.5426C71.9983 11.5774 72.001 11.6129 71.9997 11.6483L71.9671 11.6239ZM17.0444 21.6047C9.43881 20.1324 4.12711 17.9117 1.58921 15.2599V35.7909C1.59321 35.8233 1.59321 35.8561 1.58921 35.8885C1.58921 39.0853 7.60046 42.3065 17.0444 44.1855V21.6047ZM70.3647 11.6483C70.3647 6.8084 56.5364 1.62686 35.9973 1.62686C15.4582 1.62686 1.62988 6.8084 1.62988 11.6483C1.62988 14.959 8.04784 18.2859 17.9879 20.1324C18.0617 20.1417 18.1332 20.1637 18.1994 20.1975C18.3095 20.2485 18.4068 20.3235 18.4841 20.4171C18.5612 20.5095 18.6167 20.6178 18.6468 20.7343C18.6553 20.8046 18.6553 20.8756 18.6468 20.9458V25.6312C24.3812 24.6828 30.1851 24.2175 35.9973 24.2402C41.8014 24.2188 47.597 24.6841 53.3233 25.6312V20.9458C53.3149 20.8756 53.3149 20.8046 53.3233 20.7343C53.3534 20.6178 53.409 20.5095 53.486 20.4171C53.5633 20.3235 53.6606 20.2485 53.7707 20.1975C53.8369 20.1637 53.9085 20.1417 53.9822 20.1324C63.9467 18.2859 70.3647 14.959 70.3647 11.6483ZM70.3647 15.2599C67.8593 17.9117 62.5476 20.1405 54.9095 21.6047V44.1855C64.3128 42.3065 70.3647 39.0853 70.3647 35.8885C70.3607 35.8561 70.3607 35.8233 70.3647 35.7909V15.2599ZM35.9973 5.48251C36.424 5.4809 36.8415 5.60596 37.1971 5.84184C37.5526 6.07771 37.8302 6.4138 37.9946 6.80754C38.159 7.20128 38.2028 7.63495 38.1206 8.05363C38.0383 8.47231 37.8337 8.85716 37.5325 9.15943C37.2314 9.46171 36.8473 9.66782 36.4289 9.75166C36.0106 9.83549 35.5768 9.79328 35.1824 9.63037C34.788 9.46746 34.4509 9.19118 34.2137 8.83652C33.9765 8.48186 33.8498 8.06478 33.8498 7.6381C33.8498 7.06781 34.0758 6.52076 34.4783 6.11674C34.8808 5.71272 35.427 5.48467 35.9973 5.48251ZM35.9973 7.10937C35.8924 7.10776 35.7894 7.13739 35.7014 7.1945C35.6133 7.25161 35.5443 7.33361 35.503 7.43007C35.4618 7.52653 35.4501 7.63308 35.4696 7.73618C35.4891 7.83927 35.5388 7.93424 35.6124 8.009C35.686 8.08376 35.7802 8.13493 35.883 8.156C35.9857 8.17707 36.0925 8.16708 36.1896 8.12731C36.2866 8.08755 36.3697 8.01979 36.4282 7.93268C36.4866 7.84556 36.5179 7.74302 36.5179 7.6381C36.5179 7.49927 36.4633 7.36601 36.3659 7.26708C36.2685 7.16816 36.1361 7.11151 35.9973 7.10937ZM36.9653 12.9742H42.5047C42.7205 12.9742 42.9273 13.0599 43.0799 13.2124C43.2324 13.365 43.3181 13.5719 43.3181 13.7876V18.4323C43.3181 18.648 43.2324 18.8549 43.0799 19.0075C42.9273 19.16 42.7205 19.2457 42.5047 19.2457H36.9653C36.7495 19.2457 36.5426 19.16 36.3901 19.0075C36.2375 18.8549 36.1518 18.648 36.1518 18.4323V13.7876C36.1518 13.5719 36.2375 13.365 36.3901 13.2124C36.5426 13.0599 36.7495 12.9742 36.9653 12.9742ZM40.5525 17.6189H41.6913V14.6011H40.5525V17.6189ZM37.7787 17.6189H38.9256V14.6011H37.7787V17.6189ZM9.30866 31.3252C8.71822 31.3252 8.14105 31.1501 7.65012 30.8221C7.15919 30.494 6.77656 30.0278 6.55061 29.4823C6.32466 28.9368 6.26555 28.3366 6.38073 27.7575C6.49592 27.1784 6.78024 26.6465 7.19774 26.229C7.61524 25.8115 8.14717 25.5271 8.72626 25.412C9.30535 25.2968 9.90559 25.3559 10.4511 25.5818C10.9966 25.8078 11.4628 26.1904 11.7908 26.6813C12.1189 27.1723 12.2939 27.7495 12.2939 28.3399C12.294 29.1274 11.9828 29.8831 11.4282 30.4422C10.8736 31.0014 10.1206 31.3187 9.33306 31.3252H9.30866ZM9.30866 29.6983C9.57733 29.6983 9.83997 29.6186 10.0634 29.4694C10.2868 29.3201 10.4609 29.1079 10.5637 28.8597C10.6665 28.6115 10.6934 28.3384 10.641 28.0749C10.5886 27.8114 10.4592 27.5693 10.2692 27.3793C10.0792 27.1894 9.83718 27.06 9.57367 27.0076C9.31016 26.9551 9.03703 26.982 8.78881 27.0849C8.54059 27.1877 8.32843 27.3618 8.17917 27.5852C8.0299 27.8086 7.95023 28.0712 7.95023 28.3399C7.9502 28.5203 7.98613 28.699 8.05592 28.8654C8.12571 29.0318 8.22796 29.1827 8.35669 29.3092C8.48543 29.4356 8.63808 29.5352 8.80572 29.602C8.97336 29.6688 9.15263 29.7016 9.33306 29.6983H9.30866ZM3.86681 28.3399C3.86681 26.8901 4.44272 25.4998 5.46784 24.4747C6.49296 23.4495 7.88332 22.8736 9.33306 22.8736C10.7828 22.8736 12.1732 23.4495 13.1983 24.4747C14.2234 25.4998 14.7993 26.8901 14.7993 28.3399C14.7993 30.707 12.8064 39.3944 9.33306 39.3944C5.85972 39.3944 3.86681 30.707 3.86681 28.3399ZM5.49367 28.3399C5.49367 31.2276 7.72247 37.7675 9.33306 37.7675C10.9437 37.7675 13.1724 31.2601 13.1724 28.3399C13.1724 27.3216 12.7679 26.345 12.0479 25.625C11.3279 24.905 10.3513 24.5005 9.33306 24.5005C8.31479 24.5005 7.33823 24.905 6.6182 25.625C5.89818 26.345 5.49367 27.3216 5.49367 28.3399Z" fill="#75DAB4"/>
</g>
</svg>
