<svg width="72" height="72" viewBox="0 0 72 72" fill="none" xmlns="http://www.w3.org/2000/svg">
<path d="M22.6451 51.0978H12.1934C11.8729 51.0978 11.6128 50.8377 11.6128 50.5171V43.5494C11.6128 43.2289 11.8729 42.9688 12.1934 42.9688C12.514 42.9688 12.7741 43.2289 12.7741 43.5494V49.9365H22.6451C22.9656 49.9365 23.2257 50.1966 23.2257 50.5171C23.2257 50.8377 22.9656 51.0978 22.6451 51.0978Z" fill="#75DAB4"/>
<path d="M67.9353 51.097H37.7418C37.4213 51.097 37.1611 50.8369 37.1611 50.5164C37.1611 50.1959 37.4213 49.9357 37.7418 49.9357H67.3547V20.9035H38.9031C38.5826 20.9035 38.3224 20.6433 38.3224 20.3228C38.3224 20.0023 38.5826 19.7422 38.9031 19.7422H67.9353C68.2558 19.7422 68.516 20.0023 68.516 20.3228V50.5164C68.516 50.8369 68.2558 51.097 67.9353 51.097Z" fill="#75DAB4"/>
<path d="M30.7747 69.6794C30.734 69.6794 30.6911 69.6748 30.6493 69.6655C30.3357 69.5958 30.1395 69.2857 30.208 68.9722L32.5306 58.5206C32.6002 58.2082 32.9068 58.0131 33.2238 58.0793C33.5374 58.149 33.7336 58.459 33.6651 58.7726L31.3426 69.2242C31.2822 69.4948 31.0406 69.6794 30.7747 69.6794Z" fill="#75DAB4"/>
<path d="M49.3549 69.6794C49.089 69.6794 48.8475 69.4948 48.7882 69.2242L46.4656 58.7726C46.396 58.459 46.5934 58.149 46.9069 58.0793C47.224 58.0131 47.5305 58.2082 47.6002 58.5206L49.9228 68.9722C49.9925 69.2857 49.7951 69.5958 49.4815 69.6655C49.4386 69.6748 49.3956 69.6794 49.3549 69.6794Z" fill="#75DAB4"/>
<path d="M56.3225 59.2268H11.8729C9.80813 59.2268 8.12891 57.5244 8.12891 55.4306V43.5494C8.12891 43.2289 8.38904 42.9688 8.70955 42.9688C9.03007 42.9688 9.2902 43.2289 9.2902 43.5494V55.4306C9.2902 56.8833 10.448 58.0655 11.8729 58.0655H56.3225C56.643 58.0655 56.9031 58.3257 56.9031 58.6462C56.9031 58.9667 56.643 59.2268 56.3225 59.2268Z" fill="#75DAB4"/>
<path d="M68.2562 59.2256H65.6131C65.2926 59.2256 65.0324 58.9654 65.0324 58.6449C65.0324 58.3244 65.2926 58.0643 65.6131 58.0643H68.2562C69.6811 58.0643 70.8389 56.8821 70.8389 55.4293V20.0541C70.8389 18.6013 69.6811 17.4191 68.2562 17.4191H38.9034C38.5829 17.4191 38.3228 17.159 38.3228 16.8385C38.3228 16.5179 38.5829 16.2578 38.9034 16.2578H68.2562C70.3209 16.2578 72.0002 17.9603 72.0002 20.0541V55.4293C72.0002 57.5231 70.3209 59.2256 68.2562 59.2256Z" fill="#75DAB4"/>
<path d="M62.7094 72.0014H59.2256C57.3048 72.0014 55.7417 70.4383 55.7417 68.5175V58.0659C55.7417 56.1451 57.3048 54.582 59.2256 54.582H62.7094C64.6302 54.582 66.1933 56.1451 66.1933 58.0659V68.5175C66.1933 70.4383 64.6302 72.0014 62.7094 72.0014ZM59.2256 55.7433C57.9447 55.7433 56.903 56.785 56.903 58.0659V68.5175C56.903 69.7984 57.9447 70.8401 59.2256 70.8401H62.7094C63.9903 70.8401 65.032 69.7984 65.032 68.5175V58.0659C65.032 56.785 63.9903 55.7433 62.7094 55.7433H59.2256Z" fill="#75DAB4"/>
<path d="M60.9679 61.5503C60.6473 61.5503 60.3872 61.2901 60.3872 60.9696V58.6471C60.3872 58.3265 60.6473 58.0664 60.9679 58.0664C61.2884 58.0664 61.5485 58.3265 61.5485 58.6471V60.9696C61.5485 61.2901 61.2884 61.5503 60.9679 61.5503Z" fill="#75DAB4"/>
<path d="M51.6772 71.9995H28.4514C27.491 71.9995 26.7095 71.2179 26.7095 70.2576C26.7095 69.2972 27.491 68.5156 28.4514 68.5156H51.6772C52.6376 68.5156 53.4191 69.2972 53.4191 70.2576C53.4191 71.2179 52.6376 71.9995 51.6772 71.9995ZM28.4514 69.6769C28.1321 69.6769 27.8708 69.937 27.8708 70.2576C27.8708 70.5781 28.1321 70.8382 28.4514 70.8382H51.6772C51.9966 70.8382 52.2579 70.5781 52.2579 70.2576C52.2579 69.937 51.9966 69.6769 51.6772 69.6769H28.4514Z" fill="#75DAB4"/>
<path d="M38.9032 44.129H0.580645C0.260129 44.129 0 43.8689 0 43.5484V0.580645C0 0.260129 0.260129 0 0.580645 0H38.9032C39.2237 0 39.4839 0.260129 39.4839 0.580645V43.5484C39.4839 43.8689 39.2237 44.129 38.9032 44.129ZM1.16129 42.9677H38.3226V1.16129H1.16129V42.9677Z" fill="#75DAB4"/>
<path d="M65.6129 13.9371H47.0323C46.7118 13.9371 46.4517 13.677 46.4517 13.3565V2.90486C46.4517 2.58435 46.7118 2.32422 47.0323 2.32422H65.6129C65.9335 2.32422 66.1936 2.58435 66.1936 2.90486V13.3565C66.1936 13.677 65.9335 13.9371 65.6129 13.9371ZM47.613 12.7758H65.0323V3.48551H47.613V12.7758Z" fill="#75DAB4"/>
<path d="M64.4518 29.033H42.3873C42.0668 29.033 41.8066 28.7729 41.8066 28.4524V23.8072C41.8066 23.4867 42.0668 23.2266 42.3873 23.2266H64.4518C64.7723 23.2266 65.0324 23.4867 65.0324 23.8072V28.4524C65.0324 28.7729 64.7723 29.033 64.4518 29.033ZM42.9679 27.8717H63.8712V24.3879H42.9679V27.8717Z" fill="#75DAB4"/>
<path d="M49.355 40.6463H42.3873C42.0668 40.6463 41.8066 40.3862 41.8066 40.0657V35.4205C41.8066 35.1 42.0668 34.8398 42.3873 34.8398H49.355C49.6755 34.8398 49.9357 35.1 49.9357 35.4205V40.0657C49.9357 40.3862 49.6755 40.6463 49.355 40.6463ZM42.9679 39.485H48.7744V36.0011H42.9679V39.485Z" fill="#75DAB4"/>
<path d="M64.4518 40.6463H52.8389C52.5184 40.6463 52.2583 40.3862 52.2583 40.0657V35.4205C52.2583 35.1 52.5184 34.8398 52.8389 34.8398H64.4518C64.7724 34.8398 65.0325 35.1 65.0325 35.4205V40.0657C65.0325 40.3862 64.7724 40.6463 64.4518 40.6463ZM53.4196 39.485H63.8712V36.0011H53.4196V39.485Z" fill="#75DAB4"/>
<path d="M64.4515 47.6144H15.6773C15.3568 47.6144 15.0967 47.3543 15.0967 47.0338C15.0967 46.7133 15.3568 46.4531 15.6773 46.4531H64.4515C64.772 46.4531 65.0322 46.7133 65.0322 47.0338C65.0322 47.3543 64.772 47.6144 64.4515 47.6144Z" fill="#75DAB4"/>
<path d="M64.4518 44.13H42.3873C42.0668 44.13 41.8066 43.8699 41.8066 43.5494C41.8066 43.2289 42.0668 42.9688 42.3873 42.9688H64.4518C64.7723 42.9688 65.0324 43.2289 65.0324 43.5494C65.0324 43.8699 64.7723 44.13 64.4518 44.13Z" fill="#75DAB4"/>
<path d="M64.4518 32.5168H42.3873C42.0668 32.5168 41.8066 32.2566 41.8066 31.9361C41.8066 31.6156 42.0668 31.3555 42.3873 31.3555H64.4518C64.7723 31.3555 65.0324 31.6156 65.0324 31.9361C65.0324 32.2566 64.7723 32.5168 64.4518 32.5168Z" fill="#75DAB4"/>
<path d="M7.54825 10.451C5.94683 10.451 4.64502 9.14802 4.64502 7.54776C4.64502 5.9475 5.94683 4.64453 7.54825 4.64453C9.14966 4.64453 10.4515 5.9475 10.4515 7.54776C10.4515 9.14802 9.14966 10.451 7.54825 10.451ZM7.54825 5.80582C6.58786 5.80582 5.80631 6.58737 5.80631 7.54776C5.80631 8.50814 6.58786 9.28969 7.54825 9.28969C8.50863 9.28969 9.29018 8.50814 9.29018 7.54776C9.29018 6.58737 8.50863 5.80582 7.54825 5.80582Z" fill="#75DAB4"/>
<path d="M9.87083 13.9347H5.22566C4.90515 13.9347 4.64502 13.6746 4.64502 13.3541C4.64502 13.0336 4.90515 12.7734 5.22566 12.7734H9.87083C10.1913 12.7734 10.4515 13.0336 10.4515 13.3541C10.4515 13.6746 10.1913 13.9347 9.87083 13.9347Z" fill="#75DAB4"/>
<path d="M22.6454 13.9347H16.8389C16.5184 13.9347 16.2583 13.6746 16.2583 13.3541C16.2583 13.0336 16.5184 12.7734 16.8389 12.7734H22.6454C22.9659 12.7734 23.226 13.0336 23.226 13.3541C23.226 13.6746 22.9659 13.9347 22.6454 13.9347Z" fill="#75DAB4"/>
<path d="M31.9355 10.451C30.334 10.451 29.0322 9.14802 29.0322 7.54776C29.0322 5.9475 30.334 4.64453 31.9355 4.64453C33.5369 4.64453 34.8387 5.9475 34.8387 7.54776C34.8387 9.14802 33.5369 10.451 31.9355 10.451ZM31.9355 5.80582C30.9751 5.80582 30.1935 6.58737 30.1935 7.54776C30.1935 8.50814 30.9751 9.28969 31.9355 9.28969C32.8958 9.28969 33.6774 8.50814 33.6774 7.54776C33.6774 6.58737 32.8958 5.80582 31.9355 5.80582Z" fill="#75DAB4"/>
<path d="M34.258 13.9347H29.6129C29.2924 13.9347 29.0322 13.6746 29.0322 13.3541C29.0322 13.0336 29.2924 12.7734 29.6129 12.7734H34.258C34.5785 12.7734 34.8387 13.0336 34.8387 13.3541C34.8387 13.6746 34.5785 13.9347 34.258 13.9347Z" fill="#75DAB4"/>
<path d="M22.6454 10.451H16.8389C16.5184 10.451 16.2583 10.1909 16.2583 9.87034V5.22518C16.2583 4.90466 16.5184 4.64453 16.8389 4.64453H22.6454C22.9659 4.64453 23.226 4.90466 23.226 5.22518V9.87034C23.226 10.1909 22.9659 10.451 22.6454 10.451ZM17.4196 9.28969H22.0648V5.80582H17.4196V9.28969Z" fill="#75DAB4"/>
<path d="M34.2579 25.548H5.22566C4.90515 25.548 4.64502 25.2879 4.64502 24.9674C4.64502 24.6468 4.90515 24.3867 5.22566 24.3867H34.2579C34.5784 24.3867 34.8386 24.6468 34.8386 24.9674C34.8386 25.2879 34.5784 25.548 34.2579 25.548Z" fill="#75DAB4"/>
<path d="M34.2579 39.4855H5.22566C4.90515 39.4855 4.64502 39.2254 4.64502 38.9049C4.64502 38.5843 4.90515 38.3242 5.22566 38.3242H34.2579C34.5784 38.3242 34.8386 38.5843 34.8386 38.9049C34.8386 39.2254 34.5784 39.4855 34.2579 39.4855Z" fill="#75DAB4"/>
<path d="M59.8065 6.96598H57.484C57.1634 6.96598 56.9033 6.70585 56.9033 6.38533C56.9033 6.06482 57.1634 5.80469 57.484 5.80469H59.8065C60.1271 5.80469 60.3872 6.06482 60.3872 6.38533C60.3872 6.70585 60.1271 6.96598 59.8065 6.96598Z" fill="#75DAB4"/>
<path d="M62.1291 10.4504H57.484C57.1634 10.4504 56.9033 10.1902 56.9033 9.86971C56.9033 9.54919 57.1634 9.28906 57.484 9.28906H62.1291C62.4496 9.28906 62.7098 9.54919 62.7098 9.86971C62.7098 10.1902 62.4496 10.4504 62.1291 10.4504Z" fill="#75DAB4"/>
<path d="M55.1614 10.4498H50.5162C50.1957 10.4498 49.9355 10.1897 49.9355 9.8692V6.38533C49.9355 6.06482 50.1957 5.80469 50.5162 5.80469H55.1614C55.4819 5.80469 55.742 6.06482 55.742 6.38533V9.8692C55.742 10.1897 55.4819 10.4498 55.1614 10.4498ZM51.0968 9.28856H54.5807V6.96598H51.0968V9.28856Z" fill="#75DAB4"/>
<path d="M31.9354 51.0949H26.129C25.8085 51.0949 25.5483 50.8348 25.5483 50.5142C25.5483 50.1937 25.8085 49.9336 26.129 49.9336H31.9354C32.256 49.9336 32.5161 50.1937 32.5161 50.5142C32.5161 50.8348 32.256 51.0949 31.9354 51.0949Z" fill="#75DAB4"/>
</svg>
