<svg width="68" height="72" viewBox="0 0 68 72" fill="none" xmlns="http://www.w3.org/2000/svg">
<g id="Group 1261152768">
<path id="Vector" d="M33.5999 52.7984C34.2626 52.7984 34.7999 52.2612 34.7999 51.5984C34.7999 50.9357 34.2626 50.3984 33.5999 50.3984C32.9372 50.3984 32.3999 50.9357 32.3999 51.5984C32.3999 52.2612 32.9372 52.7984 33.5999 52.7984Z" fill="#75DAB4"/>
<path id="Vector_2" d="M63.6 7.19922H57.6V9.59922H63.6C64.32 9.59922 64.8 10.0792 64.8 10.7992V45.5992H62.4V11.9992H57.6V14.3992H60V45.5992H7.2V14.3992H9.6V11.9992H4.8V45.5992H2.4V10.7992C2.4 10.0792 2.88 9.59922 3.6 9.59922H9.6V7.19922H3.6C1.56 7.19922 0 8.75922 0 10.7992V53.9992C0 56.0392 1.56 57.5992 3.6 57.5992H26.4V62.3992H20.4C17.04 62.3992 14.4 65.0392 14.4 68.3992V71.9992H52.8V68.3992C52.8 65.0392 50.16 62.3992 46.8 62.3992H40.8V57.5992H63.6C65.64 57.5992 67.2 56.0392 67.2 53.9992V10.7992C67.2 8.75922 65.64 7.19922 63.6 7.19922ZM46.8 64.7992C48.84 64.7992 50.4 66.3592 50.4 68.3992V69.5992H16.8V68.3992C16.8 66.3592 18.36 64.7992 20.4 64.7992H46.8ZM38.4 62.3992H28.8V57.5992H38.4V62.3992ZM63.6 55.1992H3.6C2.88 55.1992 2.4 54.7192 2.4 53.9992V47.9992H64.8V53.9992C64.8 54.7192 64.32 55.1992 63.6 55.1992Z" fill="#75DAB4"/>
<path id="Vector_3" d="M51.6 0H15.6C13.56 0 12 1.56 12 3.6V39.6C12 41.64 13.56 43.2 15.6 43.2H51.6C53.64 43.2 55.2 41.64 55.2 39.6V3.6C55.2 1.56 53.64 0 51.6 0ZM52.8 3.6V7.2H48V2.4H51.6C52.32 2.4 52.8 2.88 52.8 3.6ZM15.6 2.4H45.6V7.2H14.4V3.6C14.4 2.88 14.88 2.4 15.6 2.4ZM51.6 40.8H15.6C14.88 40.8 14.4 40.32 14.4 39.6V9.6H52.8V39.6C52.8 40.32 52.32 40.8 51.6 40.8Z" fill="#75DAB4"/>
<path id="Vector_4" d="M25.2002 18.0016H27.6002V15.6016H25.2002C23.1602 15.6016 21.6002 17.1616 21.6002 19.2016V22.8016C21.6002 23.5216 21.1202 24.0016 20.4002 24.0016H19.2002V26.4016H20.4002C21.1202 26.4016 21.6002 26.8816 21.6002 27.6016V31.2016C21.6002 33.2416 23.1602 34.8016 25.2002 34.8016H27.6002V32.4016H25.2002C24.4802 32.4016 24.0002 31.9216 24.0002 31.2016V27.3616C24.0002 26.7616 23.7602 26.1616 23.2802 25.6816L22.8002 25.2016L23.2802 24.7216C23.7602 24.2416 24.0002 23.6416 24.0002 23.0416V19.2016C24.0002 18.4816 24.4802 18.0016 25.2002 18.0016Z" fill="#75DAB4"/>
<path id="Vector_5" d="M42.0001 18.0016H39.6001V15.6016H42.0001C44.0401 15.6016 45.6001 17.1616 45.6001 19.2016V22.8016C45.6001 23.5216 46.0801 24.0016 46.8001 24.0016H48.0001V26.4016H46.8001C46.0801 26.4016 45.6001 26.8816 45.6001 27.6016V31.2016C45.6001 33.2416 44.0401 34.8016 42.0001 34.8016H39.6001V32.4016H42.0001C42.7201 32.4016 43.2001 31.9216 43.2001 31.2016V27.3616C43.2001 26.7616 43.4401 26.1616 43.9201 25.6816L44.4001 25.2016L43.9201 24.7216C43.4401 24.2416 43.2001 23.6416 43.2001 23.0416V19.2016C43.2001 18.4816 42.7201 18.0016 42.0001 18.0016Z" fill="#75DAB4"/>
<path id="Vector_6" d="M27.5999 26.4C28.2626 26.4 28.7999 25.8627 28.7999 25.2C28.7999 24.5373 28.2626 24 27.5999 24C26.9372 24 26.3999 24.5373 26.3999 25.2C26.3999 25.8627 26.9372 26.4 27.5999 26.4Z" fill="#75DAB4"/>
<path id="Vector_7" d="M33.5999 26.4C34.2626 26.4 34.7999 25.8627 34.7999 25.2C34.7999 24.5373 34.2626 24 33.5999 24C32.9372 24 32.3999 24.5373 32.3999 25.2C32.3999 25.8627 32.9372 26.4 33.5999 26.4Z" fill="#75DAB4"/>
<path id="Vector_8" d="M39.5999 26.4C40.2626 26.4 40.7999 25.8627 40.7999 25.2C40.7999 24.5373 40.2626 24 39.5999 24C38.9372 24 38.3999 24.5373 38.3999 25.2C38.3999 25.8627 38.9372 26.4 39.5999 26.4Z" fill="#75DAB4"/>
</g>
</svg>
