<svg width="72" height="66" viewBox="0 0 72 66" fill="none" xmlns="http://www.w3.org/2000/svg">
<g id="Group 1261152771">
<path id="Vector" d="M51.0879 11.7461H46.6953V13.6559H51.0879V11.7461Z" fill="#75DAB4"/>
<path id="Vector_2" d="M64.3606 2.9602H58.9177V11.7453H55.2891V13.6551H60.8275V4.87H64.3606V7.63922H71.9999V0H64.3606V2.9602ZM66.2704 1.81431H70.09V5.63392H66.2704V1.81431Z" fill="#75DAB4"/>
<path id="Vector_3" d="M7.63922 57.9609H0V65.6002H7.63922V57.9609ZM5.72941 63.6904H1.9098V59.8707H5.72941V63.6904Z" fill="#75DAB4"/>
<path id="Vector_4" d="M20.9126 60.8261V62.7359H34.4722V57.293H32.5624V60.8261H20.9126Z" fill="#75DAB4"/>
<path id="Vector_5" d="M17.0929 60.8281H12.1274V62.7379H17.0929V60.8281Z" fill="#75DAB4"/>
<path id="Vector_6" d="M15.8517 54.2401H56.0531C58.3448 54.2401 60.1592 52.4258 60.1592 50.134V19.4817H39.6287V11.2695H16.8066C14.0374 11.2695 11.7456 13.5613 11.7456 16.3305V16.426V50.0386C11.7456 52.4258 13.6554 54.2401 15.8517 54.2401ZM20.2442 41.0625C19.3848 41.0625 18.6209 40.394 18.6209 39.4391C18.6209 38.5797 19.2893 37.8158 20.2442 37.8158C21.1036 37.8158 21.8676 38.4842 21.8676 39.4391C21.7721 40.2986 21.1036 41.0625 20.2442 41.0625ZM58.3448 38.8662H46.886C44.6897 38.8662 42.8754 37.0519 42.8754 34.8556V34.4737C42.8754 32.2774 44.6897 30.4631 46.886 30.4631H58.3448V38.8662ZM58.3448 28.6488H46.886C43.6393 28.6488 40.9656 31.3225 40.9656 34.5691V34.9511C40.9656 38.1978 43.6393 40.8715 46.886 40.8715H58.3448V50.134C58.3448 51.3754 57.3899 52.3303 56.1486 52.3303H27.1195V48.4152L29.7933 45.7415C30.2707 45.9325 30.7482 46.1235 31.3211 46.1235C33.2309 46.1235 34.8542 44.5956 34.8542 42.5903C34.8542 40.585 33.3264 39.0572 31.3211 39.0572C29.3158 39.0572 27.788 40.585 27.788 42.5903C27.788 43.2588 27.9789 43.9272 28.3609 44.4046L25.2097 47.5558V52.2348H20.8172V42.7813C22.4405 42.4948 23.7774 41.0625 23.7774 39.3437C23.7774 37.4339 22.2495 35.8105 20.2442 35.8105C18.2389 35.8105 16.7111 37.5293 16.7111 39.4391C16.7111 40.8715 17.5705 42.1129 18.8119 42.6858V52.3303H15.8517C14.6103 52.3303 13.6554 51.3754 13.6554 50.134V20.3411C14.5148 21.0095 15.6607 21.487 16.8066 21.487H58.3448V28.6488ZM29.6978 42.5903C29.6978 41.7309 30.3662 40.967 31.3211 40.967C32.1805 40.967 32.9444 41.6354 32.9444 42.5903C32.9444 43.5452 32.1805 44.2137 31.2256 44.2137C30.3662 44.2137 29.6978 43.4497 29.6978 42.5903ZM16.8066 13.1793H37.6235V19.4817H16.8066C15.0878 19.4817 13.6554 18.0493 13.6554 16.3305C13.6554 14.6117 15.0878 13.1793 16.8066 13.1793Z" fill="#75DAB4"/>
</g>
</svg>
