<svg width="72" height="72" viewBox="0 0 72 72" fill="none" xmlns="http://www.w3.org/2000/svg">
<g id="Group 1261152767">
<path id="Vector" d="M3.76667 31.4733H1C0.446667 31.4733 0 31.92 0 32.4733V39.78C0 40.3333 0.446667 40.78 1 40.78H8.29333C8.84667 40.78 9.29333 40.3333 9.29333 39.78V32.4733C9.29333 31.92 8.84667 31.4733 8.29333 31.4733H5.78667C7.56 18.82 16.8867 8.86 28.9067 6.00667H31V9.02C31 9.57333 31.4467 10.02 32 10.02H40C40.5533 10.02 41 9.57333 41 9.02V6.00667H42.9533C54.9267 8.88667 64.44 18.9733 66.2133 31.4733H63.7067C63.1533 31.4733 62.7067 31.92 62.7067 32.4733V39.78C62.7067 40.3333 63.1533 40.78 63.7067 40.78H71C71.5533 40.78 72 40.3333 72 39.78V32.4733C72 31.92 71.5533 31.4733 71 31.4733H68.2333C66.72 20.0867 59.1733 10.5333 49.1067 6.00667H62.1C62.5667 8.29333 64.5867 10.0133 67 10.0133C69.76 10.0133 72 7.76667 72 5.00667C72 2.24667 69.7533 0 67 0C64.5867 0 62.56 1.72667 62.1 4.01333C41.0067 4.01333 44.5267 4.15333 41.0067 3.59333V1.00667C41.0067 0.453333 40.56 0.00666682 40.0067 0.00666682H32.0067C31.4533 0.00666682 31.0067 0.453333 31.0067 1.00667V3.57333C27.18 4.16 31.0067 4.01333 9.91333 4.01333C9.44667 1.72667 7.42667 0.00666682 5.01333 0.00666682C2.25333 0.00666682 0.0133336 2.25333 0.0133336 5.01333C0.0133336 7.77333 2.26 10.0267 5.01333 10.0267C7.42667 10.0267 9.45333 8.3 9.91333 6.01333H22.7067C12.66 10.5067 5.28667 19.9667 3.78 31.48L3.76667 31.4733ZM7.29333 38.78H2V33.4733H7.29333V38.78ZM69.9933 38.78H64.7V33.4733H69.9933V38.78ZM33 1.99333H39V8.01333H33V1.99333ZM66.9933 1.99333C68.6467 1.99333 69.9933 3.34667 69.9933 5C69.9933 6.65333 68.6467 8.00667 66.9933 8.00667C65.34 8.00667 63.9933 6.65333 63.9933 5C63.9933 3.34667 65.34 1.99333 66.9933 1.99333ZM2 5C2 3.34 3.34667 1.99333 5 1.99333C6.65333 1.99333 8 3.34667 8 5C8 6.65333 6.65333 8.01333 5 8.01333C3.34667 8.01333 2 6.66 2 5Z" fill="#75DAB4"/>
<path id="Vector_2" d="M53.1134 40.2388L39.1801 15.8588C38.6734 14.9722 37.3134 15.3322 37.3134 16.3522V37.9988C37.3134 38.3455 37.4868 38.6655 37.7801 38.8455C40.6534 40.6522 39.3601 45.0988 36.0001 45.0988C32.6401 45.0988 31.3401 40.6522 34.2201 38.8455C34.5134 38.6655 34.6868 38.3455 34.6868 37.9988V16.3522C34.6868 15.3322 33.3268 14.9722 32.8201 15.8588L18.8868 40.2388C18.5068 40.8988 18.5134 40.4588 25.6601 55.2388H24.0868C21.5601 55.2388 19.5001 57.3055 19.5001 59.8388V61.3855C19.5001 63.8188 21.3868 65.8055 23.7734 65.9722V70.5988C23.7734 71.1522 24.2201 71.5988 24.7734 71.5988H47.2201C47.7734 71.5988 48.2201 71.1522 48.2201 70.5988V65.9722C50.6001 65.8122 52.4934 63.8188 52.4934 61.3855V59.8388C52.4934 57.2988 50.4401 55.2388 47.9068 55.2388H46.3334C53.5001 40.4188 53.4801 40.8988 53.1068 40.2388H53.1134ZM50.5001 59.8388V61.3855C50.5001 62.8188 49.3401 63.9855 47.9134 63.9855H24.0934C22.6668 63.9855 21.5068 62.8188 21.5068 61.3855V59.8388C21.5068 58.4055 22.6668 57.2388 24.0934 57.2388H47.9134C49.3401 57.2388 50.5001 58.4055 50.5001 59.8388ZM46.2268 69.5922H25.7801V65.9855H46.2268V69.5922ZM27.8868 55.2388L20.8868 40.7722L32.6868 20.1188V37.4855C28.6868 40.6255 30.9134 47.1055 36.0001 47.1055C41.0868 47.1055 43.3134 40.6255 39.3134 37.4855V20.1188L51.1134 40.7722L44.1134 55.2388H27.8801H27.8868Z" fill="#75DAB4"/>
</g>
</svg>
