<svg width="65" height="72" viewBox="0 0 65 72" fill="none" xmlns="http://www.w3.org/2000/svg">
<path d="M39.8273 72H6.95441C5.11087 71.998 3.34339 71.2648 2.03967 69.9614C0.735943 68.658 0.00242248 66.8907 0 65.0471V6.95288C0.00242248 5.10934 0.735943 3.34203 2.03967 2.03859C3.34339 0.735151 5.11087 0.00201806 6.95441 0H39.8273C41.6708 0.00201806 43.4383 0.735151 44.742 2.03859C46.0458 3.34203 46.7793 5.10934 46.7817 6.95288V11.8983C46.7817 12.222 46.6531 12.5324 46.4243 12.7612C46.1954 12.9901 45.885 13.1186 45.5614 13.1186C45.2377 13.1186 44.9273 12.9901 44.6985 12.7612C44.4696 12.5324 44.341 12.222 44.341 11.8983V6.95288C44.3394 5.7564 43.8633 4.60941 43.0171 3.76352C42.1709 2.91762 41.0238 2.44189 39.8273 2.44068H6.95441C5.75793 2.44189 4.61078 2.91762 3.7646 3.76352C2.91841 4.60941 2.44229 5.7564 2.44068 6.95288V65.0471C2.44229 66.2436 2.91841 67.3906 3.7646 68.2365C4.61078 69.0824 5.75793 69.5581 6.95441 69.5593H39.8273C41.0238 69.5581 42.1709 69.0824 43.0171 68.2365C43.8633 67.3906 44.3394 66.2436 44.341 65.0471V60.1017C44.341 59.778 44.4696 59.4676 44.6985 59.2388C44.9273 59.0099 45.2377 58.8814 45.5614 58.8814C45.885 58.8814 46.1954 59.0099 46.4243 59.2388C46.6531 59.4676 46.7817 59.778 46.7817 60.1017V65.0425C46.7805 66.8869 46.0475 68.6554 44.7436 69.9598C43.4398 71.2642 41.6716 71.998 39.8273 72Z" fill="#75DAB4"/>
<path d="M57.9682 61.3199H23.1001C21.464 61.3182 19.8953 60.6677 18.7382 59.5109C17.5812 58.3541 16.9302 56.7856 16.9282 55.1495V16.8415C16.9315 15.2062 17.5829 13.6389 18.7399 12.4831C19.8968 11.3273 21.4648 10.6774 23.1001 10.6758H57.9682C59.6043 10.6774 61.173 11.328 62.3301 12.4847C63.4871 13.6415 64.1381 15.21 64.1401 16.8461V55.1541C64.1369 56.7894 63.4854 58.3568 62.3284 59.5125C61.1715 60.6683 59.6035 61.3182 57.9682 61.3199ZM23.1001 13.1165C22.111 13.1173 21.1627 13.5104 20.4632 14.2097C19.7637 14.9089 19.3701 15.8571 19.3689 16.8461V55.1541C19.3713 56.1424 19.7654 57.0894 20.4648 57.7876C21.1642 58.4858 22.1118 58.8784 23.1001 58.8792H57.9682C58.9573 58.8784 59.9056 58.4852 60.6051 57.786C61.3047 57.0868 61.6982 56.1386 61.6994 55.1495V16.8415C61.697 15.8533 61.3029 14.9063 60.6035 14.208C59.9041 13.5098 58.9565 13.1173 57.9682 13.1165H23.1001Z" fill="#75DAB4"/>
<path d="M31.3363 46.477C31.1573 46.4771 30.9804 46.4378 30.8183 46.3618C30.6562 46.2859 30.5127 46.1752 30.3982 46.0377L22.6948 36.7814C22.5121 36.5621 22.4121 36.2858 22.4121 36.0004C22.4121 35.715 22.5121 35.4387 22.6948 35.2194L30.3982 25.9631C30.6053 25.7143 30.9028 25.558 31.2252 25.5285C31.5476 25.499 31.8685 25.5989 32.1173 25.806C32.3661 26.0131 32.5225 26.3106 32.5519 26.633C32.5814 26.9554 32.4816 27.2763 32.2744 27.5251L25.2209 36.0004L32.2744 44.4757C32.4229 44.6539 32.5175 44.8707 32.5471 45.1008C32.5767 45.3309 32.5402 45.5646 32.4417 45.7746C32.3433 45.9847 32.187 46.1623 31.9912 46.2867C31.7954 46.4111 31.5683 46.4771 31.3363 46.477Z" fill="#75DAB4"/>
<path d="M43.535 45.5178C43.2839 45.518 43.0389 45.4408 42.8334 45.2966C42.6278 45.1525 42.4717 44.9485 42.3864 44.7124L36.3838 28.1127C36.3006 27.8162 36.3325 27.4991 36.4732 27.2252C36.614 26.9512 36.8531 26.7406 37.1427 26.6356C37.4322 26.5306 37.7507 26.539 38.0344 26.659C38.318 26.7791 38.5458 27.0019 38.6719 27.2829L44.676 43.8826C44.7859 44.1868 44.7705 44.5222 44.6332 44.8151C44.4959 45.108 44.248 45.3344 43.9438 45.4446C43.8128 45.4925 43.6745 45.5173 43.535 45.5178Z" fill="#75DAB4"/>
<path d="M49.7228 46.477C49.4908 46.4771 49.2636 46.4111 49.0678 46.2867C48.872 46.1623 48.7158 45.9847 48.6173 45.7746C48.5189 45.5646 48.4823 45.3309 48.5119 45.1008C48.5416 44.8707 48.6362 44.6539 48.7846 44.4757L55.8382 36.0004L48.7846 27.5251C48.5775 27.2763 48.4777 26.9554 48.5071 26.633C48.5366 26.3106 48.6929 26.0131 48.9417 25.806C49.1905 25.5989 49.5114 25.499 49.8339 25.5285C50.1563 25.558 50.4537 25.7143 50.6609 25.9631L58.3628 35.2194C58.5454 35.4387 58.6454 35.715 58.6454 36.0004C58.6454 36.2858 58.5454 36.5621 58.3628 36.7814L50.6609 46.0377C50.5463 46.1752 50.4029 46.2859 50.2407 46.3618C50.0786 46.4378 49.9018 46.4771 49.7228 46.477Z" fill="#75DAB4"/>
<path d="M28.6615 7.78052H18.1178C17.7941 7.78052 17.4837 7.65195 17.2549 7.42309C17.026 7.19423 16.8975 6.88384 16.8975 6.56018C16.8975 6.23653 17.026 5.92613 17.2549 5.69727C17.4837 5.46842 17.7941 5.33984 18.1178 5.33984H28.6615C28.9852 5.33984 29.2956 5.46842 29.5244 5.69727C29.7533 5.92613 29.8819 6.23653 29.8819 6.56018C29.8819 6.88384 29.7533 7.19423 29.5244 7.42309C29.2956 7.65195 28.9852 7.78052 28.6615 7.78052Z" fill="#75DAB4"/>
<path d="M31.7124 66.6594H15.067C14.7434 66.6594 14.433 66.5309 14.2041 66.302C13.9752 66.0731 13.8467 65.7627 13.8467 65.4391C13.8467 65.1154 13.9752 64.805 14.2041 64.5762C14.433 64.3473 14.7434 64.2188 15.067 64.2188H31.7124C32.0361 64.2188 32.3465 64.3473 32.5753 64.5762C32.8042 64.805 32.9328 65.1154 32.9328 65.4391C32.9328 65.7627 32.8042 66.0731 32.5753 66.302C32.3465 66.5309 32.0361 66.6594 31.7124 66.6594Z" fill="#75DAB4"/>
</svg>
