<svg width="72" height="68" viewBox="0 0 72 68" fill="none" xmlns="http://www.w3.org/2000/svg">
<g id="Group 1261152778">
<path id="Vector" d="M40.3881 59.8455L38.6354 51.9711H33.3773L31.6246 59.8455H40.3881ZM9.6398 43.3346C9.6398 43.8808 9.20797 44.3253 8.64915 44.3253C8.10302 44.3253 7.65849 43.8935 7.65849 43.3346V20.2448H5.57559C4.58494 20.2448 3.72129 20.6767 3.06086 21.3371C2.40042 21.9975 1.9686 22.8739 1.9686 23.9661C1.9686 30.4181 1.9686 36.8827 1.9686 43.3346C1.9686 47.0559 4.92785 50.1168 8.64915 50.1168C12.2561 50.1168 15.3297 47.0559 15.3297 43.3346V9.7414H13.2468C11.2782 9.7414 9.6398 11.3798 9.6398 13.3484C9.6398 23.3057 9.6398 33.263 9.6398 43.3346ZM36.997 47.9196C36.997 49.1261 35.0284 49.2277 35.0284 47.9196C35.0157 46.6114 36.997 46.6114 36.997 47.9196ZM56.683 35.4475L50.447 38.4068C48.9102 39.0672 50.0152 41.4676 51.5393 40.7056L57.7753 37.8606C59.3121 37.0859 58.2198 34.6855 56.683 35.4475ZM52.7458 42.344L65.3322 64.4431C66.6403 66.4117 67.9612 65.3195 67.3008 63.6811L58.3341 39.7149L52.7458 42.344ZM54.9303 50.1168L52.5172 45.8494H16.8538C16.4219 47.4877 15.317 49.0245 14.0088 50.1168H54.9303ZM65.0019 51.9711L69.1551 63.0206C70.5775 66.9578 65.9799 69.371 63.6811 65.4338L56.0226 51.9711H40.604L42.3567 59.8455H49.685C52.1997 59.8455 53.9524 62.1443 53.9524 64.5447V66.2974C53.9524 66.8435 53.5206 67.2881 52.9617 67.2881H19.051C18.5049 67.2881 18.0603 66.8562 18.0603 66.2974V64.5447C18.0603 62.1316 19.813 59.8455 22.3277 59.8455H29.656L31.4087 51.9711H8.64915C3.8356 51.8568 0 48.2498 0 43.3219C0 36.87 0 30.4054 0 23.9534C0 20.8926 2.51473 18.3778 5.57559 18.3778H7.65849V13.3484C7.65849 10.2875 10.1732 7.7728 13.2341 7.7728H15.317V5.68989C15.317 2.51473 17.8317 0 21.0069 0H52.8474C54.816 0 56.2385 1.09226 56.683 1.42247C61.2807 5.68989 65.8783 10.6177 70.3616 15.1011C72 16.7395 72 17.7301 72 19.5844V44.3126C72 48.3641 68.8375 51.6409 65.0019 51.9711ZM49.469 25.9347L51.1074 29.5417C51.6536 30.7483 49.9009 31.5103 49.469 30.4181L47.7164 26.6968L46.7257 30.634L50.8788 36.108L54.6001 34.2537L53.0633 27.5731L49.469 25.9347ZM31.7389 32.6026H29.5544V34.4569H31.7389V32.6026ZM25.8331 19.8003C25.1727 19.8003 24.6266 20.3464 24.6266 21.0069C24.6266 21.6673 25.1727 22.2134 25.8331 22.2134C26.4936 22.2134 27.0397 21.6673 27.0397 21.0069C27.0397 20.3464 26.5952 19.8003 25.8331 19.8003ZM55.0446 19.8003C54.3842 19.8003 53.8381 20.3464 53.8381 21.0069C53.8381 21.6673 54.3842 22.2134 55.0446 22.2134C55.8067 22.2134 56.3528 21.6673 56.3528 21.0069C56.3528 20.3464 55.8067 19.8003 55.0446 19.8003ZM41.5819 20.0162H39.3974V21.9848H41.5819V20.0162ZM69.8155 45.8494H62.7031L64.2399 50.1168C66.8689 50.1168 69.1551 48.3641 69.8155 45.8494ZM17.184 43.8808H51.4376L50.7772 42.7885C47.818 42.5726 46.7257 38.6354 49.1388 36.9843L44.8714 31.4087C44.6555 31.1928 44.6555 30.8626 44.6555 30.6467L46.2939 24.1947C45.5318 23.5343 44.5412 22.8866 43.4489 22.5564V22.8866C43.4489 23.4327 43.0171 23.9788 42.4583 23.9788H38.4195C37.8734 23.9788 37.4288 23.547 37.4288 22.9882V22.5437C34.0378 23.7502 31.7389 27.027 31.6246 30.6467H32.7169C33.1487 30.6467 33.5932 31.0785 33.5932 31.6373V35.4729C33.5932 36.0191 33.1614 36.4636 32.6026 36.4636H28.5511C28.0049 36.4636 27.5604 36.0318 27.5604 35.4729V31.6373C27.5604 31.0912 27.9922 30.6467 28.5511 30.6467H29.7576C29.7576 27.1413 31.5103 23.9661 34.3553 21.9975H28.894C28.4622 23.3057 27.2556 24.182 25.8331 24.182C24.0804 24.182 22.658 22.7596 22.658 21.0069C22.658 19.2542 24.0804 17.8317 25.8331 17.8317C27.2556 17.8317 28.4622 18.8224 28.894 20.0162H37.4288V19.1399C37.4288 18.5938 37.8607 18.1492 38.4195 18.1492H42.471C43.0171 18.1492 43.4616 18.5811 43.4616 19.1399V20.0162H52.1108C52.5426 18.8097 53.7492 17.8317 55.07 17.8317C56.8227 17.8317 58.2452 19.2542 58.2452 21.0069C58.2452 22.7596 56.8227 24.182 55.07 24.182C53.7619 24.182 52.5553 23.3057 52.1108 21.9975H46.6368C47.0686 22.3277 47.5131 22.658 47.8434 22.9882L47.9577 23.1025L54.308 26.0617C54.6382 26.176 54.8541 26.4936 54.8541 26.7222L56.4925 33.5043C59.3375 32.7423 61.522 36.0191 59.8836 38.4322L61.9411 43.8808H70.0441V19.5844C70.0441 17.3999 69.2821 17.1713 67.1992 17.1713H60.9631C57.788 17.1713 55.2732 14.5422 55.2732 11.4814V4.91515C55.2732 3.27677 54.3969 2.18451 52.7585 1.9559H21.0196C18.9367 1.9559 17.184 3.59429 17.184 5.67719C17.184 18.3778 17.184 31.1801 17.184 43.8808ZM57.2291 4.69924V11.4814C57.2291 13.5643 58.8675 15.2027 60.9504 15.2027H67.7326C64.2399 11.71 60.7345 8.20462 57.2291 4.69924ZM52.0854 65.3195V64.5574C52.0854 63.2493 51.0947 61.8268 49.6723 61.8268H22.3277C20.9053 61.8268 19.9146 63.2493 19.9146 64.5574V65.3195H52.0854Z" fill="#75DAB4"/>
</g>
</svg>
