<svg width="72" height="72" viewBox="0 0 72 72" fill="none" xmlns="http://www.w3.org/2000/svg">
<path id="Vector" d="M71.4414 24.5974C71.7868 24.396 71.9994 24.0247 71.9994 23.6254V9.00049C71.9994 8.60112 71.7868 8.22987 71.4414 8.0285L57.9415 0.153561C57.5905 -0.0511871 57.1586 -0.0511871 56.8076 0.153561L43.3077 8.0285C42.9623 8.22987 42.7497 8.60112 42.7497 9.00049V19.1254H29.2498V9.00049C29.2498 8.60112 29.0371 8.22987 28.6918 8.0285L15.1919 0.153561C14.8409 -0.0511871 14.4089 -0.0511871 14.0579 0.153561L0.557996 8.0285C0.212623 8.22987 0 8.60112 0 9.00049V23.6254C0 24.0247 0.212623 24.396 0.557996 24.5974L13.4999 32.1461V39.8534L0.557996 47.4032C0.212623 47.6046 0 47.9758 0 48.3752V63.0001C0 63.3994 0.212623 63.7707 0.557996 63.9721L14.0579 71.847C14.2334 71.9494 14.4291 72 14.6249 72C14.8206 72 15.0164 71.9494 15.1919 71.847L28.6918 63.9721C29.0371 63.7707 29.2498 63.3994 29.2498 63.0001V60.7501H42.7497V63.0001C42.7497 63.3994 42.9623 63.7707 43.3077 63.9721L56.8076 71.847C56.9831 71.9494 57.1788 72 57.3745 72C57.5703 72 57.766 71.9494 57.9415 71.847L71.4414 63.9721C71.7868 63.7707 71.9994 63.3994 71.9994 63.0001V48.3752C71.9994 47.9758 71.7868 47.6046 71.4414 47.4032L58.4995 39.8545V32.1472L71.4414 24.5974ZM58.4995 29.5417V17.5212L69.7495 10.9591V22.9796L58.4995 29.5417ZM57.3745 2.42829L68.6413 9.00049L57.3745 15.5727L46.1078 9.00049L57.3745 2.42829ZM44.9996 10.9591L56.2496 17.5212V29.5417L44.9996 22.9796V21.3754H50.6246V19.1254H44.9996V10.9591ZM26.9998 21.3754V22.9796L15.7499 29.5417V17.5212L26.9998 10.9591V19.1254H21.3748V21.3754H26.9998ZM14.6249 2.42829L25.8917 9.00049L14.6249 15.5727L3.3581 9.00049L14.6249 2.42829ZM2.24998 10.9591L13.4999 17.5212V29.5417L2.24998 22.9796V10.9591ZM13.4999 42.4589V48.3752H15.7499V42.4589L25.8917 48.3752L14.6249 54.9474L3.3581 48.3752L13.4999 42.4589ZM2.24998 50.3338L13.4999 56.8959V68.9164L2.24998 62.3543V50.3338ZM26.9998 62.3543L15.7499 68.9164V56.8959L26.9998 50.3338V58.5001H21.3748V60.7501H26.9998V62.3543ZM29.2498 58.5001V48.3752C29.2498 47.9758 29.0371 47.6046 28.6918 47.4032L15.7499 39.8545V32.1472L28.6918 24.5974C29.0371 24.396 29.2498 24.0247 29.2498 23.6254V21.3754H42.7497V23.6254C42.7497 24.0247 42.9623 24.396 43.3077 24.5974L56.2496 32.1461V39.8534L43.3077 47.4032C42.9623 47.6046 42.7497 47.9758 42.7497 48.3752V58.5001H29.2498ZM44.9996 60.7501H50.6246V58.5001H44.9996V50.3338L56.2496 56.8959V68.9164L44.9996 62.3543V60.7501ZM58.4995 68.9164V56.8959L69.7495 50.3338V62.3543L58.4995 68.9164ZM68.6413 48.3752L57.3745 54.9474L46.1078 48.3752L56.2496 42.4589V48.3752H58.4995V42.4589L68.6413 48.3752Z" fill="#75DAB4"/>
</svg>
